<svg fill="currentColor" xmlns="http://www.w3.org/2000/svg" version="1.0" viewBox="310.8 429.5 593 593"><path d="M314.5 505.7c2.1 3.8 5.9 10.4 8.5 14.8s7.4 12.5 10.6 18c3.1 5.5 9.4 16.3 14 24 4.5 7.7 13.1 22.4 19 32.7l10.9 18.8h35.7c19.7 0 35.8-.2 35.8-.4 0-.1-4.3-7.7-9.6-16.7-11.5-19.5-21.4-36.8-21.4-37.2 0-.7 225.6-.8 228.2-.2l2.7.7-2.3 3.6c-1.3 2.1-9.9 16.5-19.1 32.2s-23 38.8-30.5 51.5c-17.4 29.2-22 37.2-22 37.9 0 .3 15.9.6 35.4.6h35.4l5.3-9.3c2.9-5 10.7-18.4 17.4-29.7s16-27 20.7-35 15.2-25.8 23.3-39.5c23.2-39.3 24.4-41.3 31.7-54 3.9-6.6 7.9-13.7 8.9-15.8l1.9-3.7H310.8z"/><path d="m510.8 601.9-5.7.6-22.2 37.5c-31.4 53.1-41.8 70.7-65.9 111.5-11.7 19.8-21.7 36.6-22.2 37.2-.8 1 11.2 1.3 58.5 1.5l59.6.3-12.6 21.5c-6.9 11.8-18.9 32.3-26.8 45.5-22.2 37.5-36.5 61.7-46 78-4.8 8.2-9.1 15.5-9.6 16.1s-.6 1.4-.2 1.7c.7.8 486.3 1 486.3.2 0-.2-2.6-4.8-5.7-10.2s-7.1-12.3-8.8-15.3c-4.2-7.3-26.3-45.4-35.1-60.3-10-17.2-20.3-34.9-31.2-53.7-5.2-9.1-17.7-30.5-27.7-47.5-10-17.1-21.5-36.6-25.5-43.5s-8.2-14.1-9.5-16c-1.2-1.9-8.2-13.9-15.5-26.5-20.2-35.2-23.4-40.5-24.1-40.5-.4 0-5.8 8.7-12 19.2-6.2 10.6-14.6 24.9-18.7 31.8s-13.6 22.8-21 35.5c-7.5 12.6-17 28.8-21.2 36-4.3 7.1-15.4 26-24.7 42-9.4 15.9-18.8 31.9-21 35.5s-4.5 7.5-5.2 8.7l-1.2 2.3h70.6l3.4-5.8c14.3-24.1 24.2-40.9 35.8-60.7 7.4-12.7 13.8-23.4 14.2-23.8.8-.8 7.5 10.4 46.8 78.3 3.4 5.8 11.7 20.2 18.6 32l12.6 21.5-136.6.3c-75.2.1-136.8 0-137.1-.2-.2-.3 4.3-8.3 10-17.8 5.8-9.5 15.6-26.1 21.8-36.8s15.5-26.5 20.5-35c31.5-52.9 42.5-71.9 42.5-73.5 0-.2-26.5-.6-58.9-.7l-58.9-.3 9.2-15.5c5.1-8.5 17-28.6 26.3-44.5 9.4-16 21.9-37.2 27.8-47.3 5.9-10 10.6-18.4 10.4-18.6-.8-.7-58.5-1.3-64.1-.7m541 19.9-50.8.2v45.5l63-.1c34.7 0 63 .3 63 .7s-2.1 3.5-4.7 7-12.8 17.6-22.7 31.4c-17.8 24.8-24.5 34.2-55.3 77.5-8.7 12.4-20.1 28.3-25.3 35.5-5.1 7.1-11.5 16-14.2 19.8l-4.8 6.7v36.1l97.1-.1c53.4-.1 97.7-.4 98.5-.7 1.1-.4 1.4-4.6 1.4-22.8v-22.3l-8.2-.7c-4.6-.3-33.2-.5-63.6-.3-30.3.2-55.1 0-55-.4.2-.4 13.1-18.8 28.8-40.9s35.4-49.9 43.9-61.8c8.4-11.9 18.7-26.6 22.9-32.6 4.2-6.1 12.7-17.9 18.9-26.4l11.3-15.4V622l-30.7-.2c-17 0-38-.2-46.8-.2-8.8-.1-38.8 0-66.7.2M2260 752v130h55v-63.3l7.8-8 7.9-8 8.8 13.9c4.8 7.7 16.4 25.5 25.8 39.6l17 25.8h20.6c11.3 0 25.6-.3 31.8-.7l11.2-.6-36.6-54.6c-20.1-30-36.7-55.1-37-55.7-.2-.6 4.4-6.7 10.3-13.5 23.3-27 52.1-60.5 56.2-65.3l4.2-5.1-32.2-.3c-27.4-.2-32.3 0-33 1.2-.5.8-14.7 18-31.6 38.2l-30.7 36.7-.3-70.1-.2-70.2h-55zm-634.3-114.3c-.4.3-.7 11.4-.7 24.5V686h-27v41h26.9l.3 56.7.3 56.8 2.6 6.7c9.4 24.2 26.4 35.5 55.9 37.4 13 .9 32.4-1.9 37.7-5.4 1-.6.3-5.7-2.9-21.7-2.2-11.6-4.1-21.1-4.2-21.2s-2.6.5-5.5 1.4c-3.4.9-7.8 1.4-12.2 1.1-7.3-.4-10.4-2-14.3-7.2-2-2.7-2.1-4-2.4-53.7l-.3-50.9h38.1v-41l-18.7-.2-18.8-.3-.3-23.6-.2-23.6-5.3-.7c-7-.8-48.2-.8-49 .1m-145.1 46.9c-9.6 1.8-23.4 6.8-31.2 11.5-7.9 4.7-18.2 15.1-22.1 22.5-8.3 15.6-8.5 36.1-.5 50.7 3.7 6.9 14.7 16.7 23.4 21 9.1 4.5 26.3 9.4 49.5 14.2 9.7 2 20.1 4.6 23 5.6 8.9 3.4 13.5 10.8 11.9 19.4-.9 4.8-4.7 8.9-11.2 12.1-10.8 5.3-31 4.2-42.1-2.2-5-2.9-8.2-7.1-10.5-13.9-1.5-4.5-2-5-4.5-4.8-1.5.1-11.8.7-22.8 1.3-11 .5-21.7 1.3-23.7 1.6l-3.8.6.6 4.1c1.5 10.9 7.5 22.6 16 31.7 25.9 27.4 83.3 34.1 123.2 14.3q31.65-15.6 33.9-49.8c1-15.6-3.2-27.1-13.6-37.6-11.4-11.3-27.8-17.6-65.6-25.4-19.5-4-24.3-5.5-29.3-9.2-11.6-8.6-6-24.8 9.9-28.2 7.2-1.6 18.5-1.4 25.4.4 9.2 2.4 13.2 5.5 16.7 13.2l3.1 6.6 14.1-.7c32.2-1.5 36.6-1.9 36.6-3.2 0-2.6-6-18.7-8.6-23.2-9.3-15.8-30.1-28.7-52.9-32.6-11.2-2-34-1.9-44.9 0m350.7-.2c-13.8 3.4-26.1 13.1-33.1 26.4-1.8 3.4-3.6 6.2-3.9 6.2s-.4-6.9-.2-15.3l.4-15.2-26.7-.3-26.8-.2v196.1l27.3-.3 27.2-.3.5-58c.5-55.9.6-58.2 2.6-63.5 3.6-9.3 6-13.4 10.7-17.7 10.7-9.9 26.2-13.4 43.1-9.8 3.8.8 7.1 1.3 7.3 1.1.6-.6 2.2-47 1.7-47.8-1.7-2.8-20.7-3.6-30.1-1.4m99.2.5c-10.3 2.2-14.9 3.8-22.6 7.6-13.7 7-25.7 18-31.6 29-3.3 6.3-7.6 20.2-6.5 20.9.4.2 10.6.7 22.7 1 12.1.4 23.4.9 25 1.2 2.9.5 3.2.2 5.5-4.5 5.2-11.1 12.3-15.3 27.4-15.9 12.8-.6 21.2 1.5 26.6 6.7 6 5.7 7.4 13.3 4 20.9-2.5 5.4-7.8 8-20.5 9.7-4.9.7-16.2 2.3-25 3.5-28.6 4-45 10.3-56.6 21.9-11 10.9-14.9 21.4-14.9 40 0 11.3 1.7 19.7 5.5 27 10.4 20.1 31.5 31.3 59.5 31.5 24.2.2 41.8-7.4 51.8-22.4 4.8-7.2 5.2-6.6 5.2 8.8v10.3l24.3-.2c13.4 0 25-.5 25.8-1 2.1-1.3 2.6-131.5.5-143.6-3.4-19.7-15.1-34.7-34.6-44.1-15.9-7.8-23-9.4-44.5-9.8-14.8-.3-19.6 0-27 1.5m52.3 120.8c-.4 13.8-.6 15.2-3.3 20.6-3.7 7.5-11.8 15-18.6 17.2-15.8 5.3-33.2 2.9-40.2-5.4-7.6-9-5.3-24.1 4.5-30.9 5.5-3.8 11.1-5.6 24.5-8.2 12.7-2.4 25.9-5.5 29.4-6.9 1.3-.5 2.8-1 3.3-1 .5-.1.6 6.5.4 14.6M2129.6 685c-35.5 8.1-59.4 31.7-68.7 67.8-4.6 18.2-4.6 44.8.1 63.7 4.3 17.2 18 38.8 31.6 49.8 32.5 26.4 93.8 25.2 122.8-2.2 13.4-12.8 21.6-29 25.1-49.9l.7-4.2h-54l-.7 3.7c-3.4 19-21.3 30.4-41.1 26.3-15.7-3.2-25-13.4-30-32.5-2.5-9.6-2.6-34.8-.1-45.4 5.1-22.2 16.9-33.9 35.2-34.9 10.2-.5 17.4 1.4 23.6 6.2 5.4 4.3 11.6 14.3 12.5 20.2l.6 4.4h25.7c14.1 0 26.2-.4 26.9-.8 1-.7 1-2.2-.2-7.8-3.9-18.2-10.3-30.8-21.4-41.9-11.4-11.4-27.4-19.6-45.1-22.9-11.3-2.2-33-1.9-43.5.4M1219 751.2c0 41.4.4 68.6 1.1 74.3 3 24.2 16.2 43.2 36.5 52.5 17.1 7.8 38.9 8.3 56.8 1.4 10.1-3.9 21.1-14 27.3-25l3.1-5.7.7 3.5c.4 1.9.6 4.1.5 4.9s-.2 6.7-.1 13.1l.1 11.8h20.9c11.4 0 22.9-.3 25.5-.6l4.6-.7V686h-54v58.3c0 62.2-.1 64.2-5.1 73.8-3 5.9-9 12.1-14.6 14.9-3.9 2-6.6 2.6-14.4 2.8-13.3.5-17.2-.7-23.7-7.5-6.2-6.3-8.7-11.2-10.1-20.3-.7-4-1.1-28.6-1.1-64.3V686h-54z"/></svg>